<?xml version="1.0" encoding="utf-8"?>
<!-- Generator: Adobe Illustrator 17.1.0, SVG Export Plug-In . SVG Version: 6.00 Build 0)  -->
<!DOCTYPE svg PUBLIC "-//W3C//DTD SVG 1.1//EN" "http://www.w3.org/Graphics/SVG/1.1/DTD/svg11.dtd">
<svg version="1.1" id="Capa_1" xmlns="http://www.w3.org/2000/svg" xmlns:xlink="http://www.w3.org/1999/xlink" x="0px" y="0px"
	 viewBox="0 0 5 10" enable-background="new 0 0 5 10" xml:space="preserve">
<path fill="#F6EC3C" d="M2.7,4.9c0,0-0.1,0-0.1,0c0,0,0,0,0,0c0,0-0.1,0-0.1,0c0,0,0,0,0,0c0,0-0.1,0-0.1,0c0,0,0,0.1,0,0.1
	C2.5,5.2,2.8,5,2.7,4.9z"/>
<path fill="#F6EC3C" d="M2.1,4.7C1.9,4.7,1.8,5,2,5c0,0,0.1,0,0.1-0.1c0,0,0,0,0,0c0,0,0,0,0,0l0,0c0,0,0,0.1,0.1,0.1c0,0,0,0,0,0
	C2.3,5,2.2,4.7,2.1,4.7z"/>
<path fill="#F6EC3C" d="M3,4.7C2.8,4.7,2.7,5,2.9,5c0,0,0.1,0,0.1-0.1c0,0,0,0,0,0c0,0,0,0,0,0c0,0,0,0,0,0C3,4.9,3,5,3.1,5
	C3.2,5,3.1,4.7,3,4.7z"/>
<path fill="#F6EC3C" d="M4.2,2.9c0,0,0.2,0-3.1,0c0,0-0.1,0-0.1,0.1c0,0,0,0.1,0.1,0.1h2.9v3.5H3.4V6.2c0-0.2-0.1-0.4-0.2-0.5
	c0.2-0.1,0.3-0.3,0.4-0.6c0.2,0,0.3-0.1,0.3-0.2c0-0.2-0.1-0.3-0.2-0.3c0,0,0,0-0.1,0C3.5,4.1,3,3.6,2.7,3.3c-0.1-0.1-0.3-0.1-0.4,0
	c0,0,0,0,0,0C2,3.6,1.5,4.1,1.4,4.6c-0.2,0-0.3,0.1-0.3,0.3c0,0.2,0.1,0.3,0.3,0.3c0,0,0.1,0,0.1,0c0.1,0.2,0.2,0.4,0.4,0.5
	C1.7,5.9,1.7,6,1.7,6.2v0.3H0.9V2.9c0,0,0-0.1-0.1-0.1c0,0-0.1,0-0.1,0.1v3.7c0,0,0,0.1,0.1,0.1h3.3c0,0,0.1,0,0.1-0.1
	C4.3,2.7,4.3,2.9,4.2,2.9z M1.7,4.2C1.8,4.2,1.8,4.2,1.7,4.2c0.1,0,0.2-0.1,0.1-0.2C1.9,4,1.9,3.9,2,3.9c0.2,0,0.3,0.1,0.5,0.1
	c0.1,0,0.2-0.1,0.1-0.2c-0.1,0-0.3-0.1-0.4-0.1c0,0,0.1-0.1,0.1-0.1c0.1,0,0.2,0.1,0.4,0.1c0.1,0,0.2-0.1,0.1-0.2
	c-0.1,0-0.2-0.1-0.3-0.1c0,0,0.1-0.1,0.1-0.1c0.1-0.1,0.1-0.1,0.2,0c0.1,0.1,0.2,0.2,0.3,0.3c0,0-0.1,0.1-0.1,0.1c0,0,0,0,0,0.1
	C3,3.8,3,3.9,3.1,4c0.1,0.1,0.2,0.3,0.3,0.4C3.2,4.2,3,4.1,2.8,4c0,0-0.1,0-0.1,0c0,0,0,0.1,0,0.1c0.1,0,0.1,0.1,0.2,0.1
	c-0.2,0-0.3-0.1-0.5-0.1c-0.1,0-0.2-0.1-0.3-0.1C2.1,4.1,2,4.2,2.1,4.2c-0.2,0-0.3,0.1-0.5,0.2C1.7,4.4,1.7,4.3,1.7,4.2z M3.3,4.6
	C3,4.5,2.8,4.4,2.6,4.3C2.8,4.3,3.1,4.4,3.3,4.6z M2.5,4.3C2.2,4.4,2,4.5,1.7,4.6C2,4.4,2.2,4.3,2.5,4.3z M1.6,5.1
	C1.6,5,1.5,5,1.5,5c0,0,0,0,0,0C1.4,5.1,1.3,5,1.3,5c0-0.1,0-0.2,0.1-0.2c0,0,0.1,0,0.1,0c0,0,0.6,0,1.1-0.3c0.5,0.3,1.1,0.3,1,0.3
	c0,0,0,0,0,0c0.1,0,0.1,0,0.2,0.1c0,0.1,0,0.1-0.1,0.2c0,0,0,0-0.1,0C3.6,5,3.5,5,3.5,5c0,0,0,0,0,0.1C3.4,5.4,3.1,5.7,2.7,5.7
	c0,0,0,0-0.1,0.1C2.4,5.8,2.4,5.8,2.4,5.7C2,5.7,1.7,5.4,1.6,5.1z M3.2,6.5H3V6.3c0,0,0-0.1-0.1-0.1c0,0-0.1,0-0.1,0.1v0.2H2.2V6.3
	c0,0,0-0.1-0.1-0.1S2,6.3,2,6.3v0.2H1.8V6.2C1.8,6,2,5.8,2,5.8c0.1,0,0.2,0.1,0.3,0.1L2.4,6v0.1c0,0,0,0.1,0.1,0.1s0.1,0,0.1-0.1V6
	l0.1-0.1c0.1,0,0.2-0.1,0.3-0.1c0,0,0.2,0.2,0.2,0.4V6.5z"/>
<path fill="#F6EC3C" d="M5,6.4L4.6,4.9v-2c0-0.2-0.2-0.4-0.4-0.4H3.9C3.9,2.3,3.7,2.2,3.4,2.2l-1,0.3H0.8c-0.2,0-0.4,0.2-0.4,0.4V3
	c-0.1,0-0.3,0.1-0.4,0.2C0,3.4,0,3.5,0,3.6l0.4,1.5v2c0,0.2,0.2,0.4,0.4,0.4h0.2c0.1,0.2,0.3,0.3,0.5,0.3l1-0.3h1.6
	c0.2,0,0.4-0.2,0.4-0.4V7c0.1,0,0.3-0.1,0.4-0.2C5,6.6,5,6.5,5,6.4z M0.4,4.4L0.2,3.5c0-0.1,0-0.1,0-0.2c0.1-0.1,0.1-0.1,0.2-0.1
	V4.4z M3.5,2.4c0.1,0,0.2,0,0.3,0.1H3.1L3.5,2.4z M1.5,7.6c-0.1,0-0.2,0-0.3-0.1h0.7L1.5,7.6z M4.4,7.1c0,0.1-0.1,0.2-0.2,0.2H0.8
	c-0.1,0-0.2-0.1-0.2-0.2V2.9c0-0.1,0.1-0.2,0.2-0.2h3.3c0.1,0,0.2,0.1,0.2,0.2V7.1z M4.7,6.8L4.7,6.8L4.6,5.6l0.2,0.9
	C4.9,6.6,4.8,6.7,4.7,6.8C4.7,6.8,4.7,6.8,4.7,6.8z"/>
</svg>
